<?xml version="1.0" encoding="UTF-8" standalone="no"?>
<!-- Created with Inkscape (http://www.inkscape.org/) -->

<svg
   width="1920"
   height="1080"
   viewBox="0 0 507.99999 285.74999"
   version="1.1"
   id="svg1"
   xml:space="preserve"
   inkscape:export-filename="bitmap.png"
   inkscape:export-xdpi="68.300003"
   inkscape:export-ydpi="68.300003"
   inkscape:version="1.4 (e7c3feb100, 2024-10-09)"
   sodipodi:docname="arch_white_background.svg"
   xmlns:inkscape="http://www.inkscape.org/namespaces/inkscape"
   xmlns:sodipodi="http://sodipodi.sourceforge.net/DTD/sodipodi-0.dtd"
   xmlns:xlink="http://www.w3.org/1999/xlink"
   xmlns="http://www.w3.org/2000/svg"
   xmlns:svg="http://www.w3.org/2000/svg"><sodipodi:namedview
     id="namedview1"
     pagecolor="#ffffff"
     bordercolor="#000000"
     borderopacity="0.25"
     inkscape:showpageshadow="2"
     inkscape:pageopacity="0.0"
     inkscape:pagecheckerboard="0"
     inkscape:deskcolor="#d1d1d1"
     inkscape:document-units="mm"
     inkscape:zoom="0.27269101"
     inkscape:cx="885.61775"
     inkscape:cy="465.72859"
     inkscape:window-width="1344"
     inkscape:window-height="746"
     inkscape:window-x="10"
     inkscape:window-y="10"
     inkscape:window-maximized="1"
     inkscape:current-layer="layer1" /><defs
     id="defs1"><linearGradient
       x1="112.49854"
       y1="6.1372099"
       x2="112.49853"
       y2="129.3468"
       id="path1082_2_"
       gradientUnits="userSpaceOnUse"
       gradientTransform="translate(287,-83)"><stop
         id="stop193"
         style="stop-color:#ffffff;stop-opacity:0"
         offset="0" /><stop
         id="stop195"
         style="stop-color:#ffffff;stop-opacity:0.27450982"
         offset="1" /><midPointStop
         offset="0"
         style="stop-color:#FFFFFF"
         id="midPointStop197" /><midPointStop
         offset="0.5"
         style="stop-color:#FFFFFF"
         id="midPointStop199" /><midPointStop
         offset="1"
         style="stop-color:#000000"
         id="midPointStop201" /></linearGradient><linearGradient
       x1="541.33502"
       y1="104.50665"
       x2="606.91248"
       y2="303.14029"
       id="linearGradient2544"
       xlink:href="#path1082_2_"
       gradientUnits="userSpaceOnUse"
       gradientTransform="matrix(-0.3937741,0,0,0.393752,357.51969,122.00151)" /><linearGradient
       id="linearGradient3388"><stop
         id="stop3390"
         style="stop-color:#000000;stop-opacity:0"
         offset="0" /><stop
         id="stop3392"
         style="stop-color:#000000;stop-opacity:0.37113401"
         offset="1" /></linearGradient><linearGradient
       x1="490.72305"
       y1="237.72447"
       x2="490.72305"
       y2="183.9644"
       id="linearGradient4416"
       xlink:href="#linearGradient3388"
       gradientUnits="userSpaceOnUse"
       gradientTransform="matrix(0.749107,0,0,0.749107,-35.459862,91.44108)" /></defs><g
     inkscape:label="Layer 1"
     inkscape:groupmode="layer"
     id="layer1"><rect
       style="fill:#000000;stroke-width:0.831186"
       id="rect1"
       width="508.00003"
       height="285.75"
       x="4.9737992e-14"
       y="7.1054274e-15" /><path
       d="m 253.6408,112.24535 c -2.18012,5.3451 -3.49508,8.84142 -5.92236,14.02762 1.48822,1.57752 3.31497,3.41462 6.28156,5.48946 -3.18938,-1.31241 -5.36494,-2.63006 -6.99077,-3.99736 -3.10647,6.48211 -7.9734,15.71559 -17.84997,33.46179 7.76265,-4.48151 13.78013,-7.24442 19.38812,-8.29867 -0.2408,-1.03572 -0.37771,-2.15606 -0.36841,-3.325 l 0.009,-0.24868 c 0.12318,-4.97333 2.7103,-8.79782 5.775,-8.53814 3.0647,0.25967 5.44685,4.50429 5.32367,9.47761 -0.0231,0.93582 -0.12872,1.83607 -0.31315,2.67105 5.54711,1.08511 11.50023,3.84094 19.15786,8.26183 -1.50994,-2.7799 -2.85768,-5.28577 -4.14473,-7.67235 -2.02731,-1.57131 -4.14189,-3.61636 -8.45525,-5.83026 2.96475,0.77036 5.08747,1.65916 6.7421,2.65262 -13.08552,-24.36345 -14.14518,-27.60084 -18.63258,-38.13152 z"
       id="path2518"
       style="fill:#ffffff;fill-opacity:1;fill-rule:evenodd;stroke:none;stroke-width:0.294737" /></g></svg>
