<?xml version="1.0" encoding="UTF-8" standalone="no"?>
<!-- Created with Inkscape (http://www.inkscape.org/) -->

<svg
   width="1920"
   height="1080"
   viewBox="0 0 507.99999 285.74999"
   version="1.1"
   id="svg1"
   xml:space="preserve"
   inkscape:export-filename="bitmap.png"
   inkscape:export-xdpi="68.300003"
   inkscape:export-ydpi="68.300003"
   inkscape:version="1.4 (e7c3feb100, 2024-10-09)"
   sodipodi:docname="void_white_background.svg"
   xmlns:inkscape="http://www.inkscape.org/namespaces/inkscape"
   xmlns:sodipodi="http://sodipodi.sourceforge.net/DTD/sodipodi-0.dtd"
   xmlns:xlink="http://www.w3.org/1999/xlink"
   xmlns="http://www.w3.org/2000/svg"
   xmlns:svg="http://www.w3.org/2000/svg"><sodipodi:namedview
     id="namedview1"
     pagecolor="#ffffff"
     bordercolor="#000000"
     borderopacity="0.25"
     inkscape:showpageshadow="2"
     inkscape:pageopacity="0.0"
     inkscape:pagecheckerboard="0"
     inkscape:deskcolor="#d1d1d1"
     inkscape:document-units="mm"
     inkscape:zoom="1.0052328"
     inkscape:cx="631.19709"
     inkscape:cy="393.93861"
     inkscape:window-width="1346"
     inkscape:window-height="730"
     inkscape:window-x="10"
     inkscape:window-y="28"
     inkscape:window-maximized="1"
     inkscape:current-layer="layer1" /><defs
     id="defs1"><linearGradient
       x1="112.49854"
       y1="6.1372099"
       x2="112.49853"
       y2="129.3468"
       id="path1082_2_"
       gradientUnits="userSpaceOnUse"
       gradientTransform="translate(287,-83)"><stop
         id="stop193"
         style="stop-color:#ffffff;stop-opacity:0"
         offset="0" /><stop
         id="stop195"
         style="stop-color:#ffffff;stop-opacity:0.27450982"
         offset="1" /><midPointStop
         offset="0"
         style="stop-color:#FFFFFF"
         id="midPointStop197" /><midPointStop
         offset="0.5"
         style="stop-color:#FFFFFF"
         id="midPointStop199" /><midPointStop
         offset="1"
         style="stop-color:#000000"
         id="midPointStop201" /></linearGradient><linearGradient
       x1="541.33502"
       y1="104.50665"
       x2="606.91248"
       y2="303.14029"
       id="linearGradient2544"
       xlink:href="#path1082_2_"
       gradientUnits="userSpaceOnUse"
       gradientTransform="matrix(-0.3937741,0,0,0.393752,357.51969,122.00151)" /><linearGradient
       id="linearGradient3388"><stop
         id="stop3390"
         style="stop-color:#000000;stop-opacity:0"
         offset="0" /><stop
         id="stop3392"
         style="stop-color:#000000;stop-opacity:0.37113401"
         offset="1" /></linearGradient><linearGradient
       x1="490.72305"
       y1="237.72447"
       x2="490.72305"
       y2="183.9644"
       id="linearGradient4416"
       xlink:href="#linearGradient3388"
       gradientUnits="userSpaceOnUse"
       gradientTransform="matrix(0.749107,0,0,0.749107,-35.459862,91.44108)" /></defs><g
     inkscape:label="Layer 1"
     inkscape:groupmode="layer"
     id="layer1"><rect
       style="fill:#000000;stroke-width:0.831186"
       id="rect1"
       width="508.00003"
       height="285.75"
       x="4.9737992e-14"
       y="7.1054274e-15" /><g
       id="g6"
       transform="matrix(0.26458333,0,0,0.26458333,306.4662,158.44216)"><path
         d="m -199.62121,-187.27354 c -22.03188,0.0468 -43.49345,7.00727 -61.35906,19.90017 l 23.90268,23.90269 c 11.27745,-6.8986 24.23629,-10.55974 37.45638,-10.58222 39.77241,-8e-5 72.01434,32.24185 72.01426,72.014264 -0.0318,13.21538 -3.69956,26.16719 -10.60151,37.43708 l 23.94799,23.94799 c 12.8888,-17.87595 19.840399,-39.34715 19.874169,-61.38507 0,-58.119624 -47.115289,-105.234904 -105.234909,-105.234904 z"
         fill="#abc2ab"
         id="path1"
         style="fill:#ffffff" /><path
         d="m -138.26215,3.2960945 -23.90269,-23.9026805 c -11.27745,6.89859 -24.23629,10.55974 -37.45637,10.58221 -39.77242,8e-5 -72.01434,-32.24185 -72.01426,-72.01426 0.0318,-13.215382 3.69954,-26.167194 10.60151,-37.437084 l -23.948,-23.94798 c -12.88882,17.87593 -19.84038,39.34714 -19.87415,61.385064 0,58.11962 47.11527,105.2349 105.2349,105.2349 22.03188,-0.0468 43.49344,-7.00726 61.35906,-19.9001695 z"
         fill="#478061"
         id="path2"
         style="fill:#ffffff" /><circle
         fill="#abc2ab"
         cx="-199.63803"
         cy="-82.038635"
         r="33.503357"
         id="circle2"
         style="fill:#ffffff" /></g></g></svg>
